HIERARCHY
ROOT SpineBase
{
  OFFSET 0.000000 0.000000 0.000000
  CHANNELS 6 Xposition Yposition Zposition Zrotation Xrotation Yrotation
  JOINT SpineMid
  {
    OFFSET 0.000000 30.734523 0.000000
    CHANNELS 3 Zrotation Xrotation Yrotation
    JOINT SpineShoulder
    {
      OFFSET 0.254471 22.884322 -0.561623
      CHANNELS 3 Zrotation Xrotation Yrotation
      JOINT Neck
      {
        OFFSET 0.143834 7.584573 -0.454282
        CHANNELS 3 Zrotation Xrotation Yrotation
        JOINT Head
        {
          OFFSET 1.313307 8.334700 5.214987
          CHANNELS 3 Zrotation Xrotation Yrotation
          End Site
          {
            OFFSET 0 0 0
          }
        }
      }
      JOINT ShoulderLeft
      {
        OFFSET -1.959851 -3.788361 -10.556306
        CHANNELS 3 Zrotation Xrotation Yrotation
        JOINT ElbowLeft
        {
          OFFSET 1.155227 -21.703573 -5.274791
          CHANNELS 3 Zrotation Xrotation Yrotation
          JOINT WristLeft
          {
            OFFSET 4.979204 -21.450352 -1.920146
            CHANNELS 3 Zrotation Xrotation Yrotation
            JOINT HandLeft
            {
              OFFSET 1.132014 -11.147053 1.133847
              CHANNELS 3 Zrotation Xrotation Yrotation
              JOINT HandTipLeft
              {
                OFFSET 3.630153 -5.270282 -0.133550
                CHANNELS 3 Zrotation Xrotation Yrotation
                End Site
                {
                  OFFSET 0 0 0
                }
              }
              JOINT ThumbLeft
              {
                OFFSET -4.056306 -1.262237 0.704255
                CHANNELS 3 Zrotation Xrotation Yrotation
                End Site
                {
                  OFFSET 0 0 0
                }
              }
            }
          }
        }
      }
      JOINT ShoulderRight
      {
        OFFSET 8.340458 -5.504697 12.477649
        CHANNELS 3 Zrotation Xrotation Yrotation
        JOINT ElbowRight
        {
          OFFSET 3.032344 -19.007341 -7.654557
          CHANNELS 3 Zrotation Xrotation Yrotation
          JOINT WristRight
          {
            OFFSET 1.114552 -19.364092 9.361473
            CHANNELS 3 Zrotation Xrotation Yrotation
            JOINT HandRight
            {
              OFFSET -0.853617 -19.258893 4.779495
              CHANNELS 3 Zrotation Xrotation Yrotation
              JOINT HandTipRight
              {
                OFFSET 2.117581 -3.309341 0.403942
                CHANNELS 3 Zrotation Xrotation Yrotation
                End Site
                {
                  OFFSET 0 0 0
                }
              }
              JOINT ThumbRight
              {
                OFFSET 2.658230 -1.986241 -0.481141
                CHANNELS 3 Zrotation Xrotation Yrotation
                End Site
                {
                  OFFSET 0 0 0
                }
              }
            }
          }
        }
      }
    }
  }
  JOINT HipLeft
  {
    OFFSET -1.355641 1.960938 -4.152530
    CHANNELS 3 Zrotation Xrotation Yrotation
    JOINT KneeLeft
    {
      OFFSET -4.926521 -33.926200 -6.007484
      CHANNELS 3 Zrotation Xrotation Yrotation
      JOINT AnkleLeft
      {
        OFFSET -6.628743 -30.363754 0.807165
        CHANNELS 3 Zrotation Xrotation Yrotation
        JOINT FootLeft
        {
          OFFSET 7.758061 -2.462496 -6.004520
          CHANNELS 3 Zrotation Xrotation Yrotation
          End Site
          {
            OFFSET 0 0 0
          }
        }
      }
    }
  }
  JOINT HipRight
  {
    OFFSET 2.522260 -0.105900 -0.493063
    CHANNELS 3 Zrotation Xrotation Yrotation
    JOINT KneeRight
    {
      OFFSET -0.052264 -37.036310 4.060839
      CHANNELS 3 Zrotation Xrotation Yrotation
      JOINT AnkleRight
      {
        OFFSET -8.489302 -28.305003 -1.036167
        CHANNELS 3 Zrotation Xrotation Yrotation
        JOINT FootRight
        {
          OFFSET 9.840101 -1.393238 -8.220443
          CHANNELS 3 Zrotation Xrotation Yrotation
          End Site
          {
            OFFSET 0 0 0
          }
        }
      }
    }
  }
}
MOTION
Frames: 5
Frame Time: 0.033333
-59.089692 73.027800 311.124453 -0.000000 0.000000 -43.340022 -0.000000 0.000000 43.340022 -0.000000 0.000000 0.000000 -0.000000 0.000000 0.000000 0.000000 0.000000 0.000000 -0.000000 0.000000 0.000000 -0.000000 0.000000 0.000000 -0.000000 0.000000 0.000000 -0.000000 0.000000 0.000000 0.000000 0.000000 0.000000 0.000000 0.000000 0.000000 -0.000000 0.000000 0.000000 -0.000000 0.000000 0.000000 -0.000000 0.000000 0.000000 -0.000000 0.000000 0.000000 0.000000 0.000000 0.000000 0.000000 0.000000 0.000000 -0.000000 0.000000 43.340022 -0.000000 0.000000 0.000000 -0.000000 0.000000 0.000000 0.000000 0.000000 0.000000 -0.000000 0.000000 43.340022 -0.000000 0.000000 0.000000 -0.000000 0.000000 0.000000 0.000000 0.000000 0.000000
-58.792907 73.095219 311.564649 0.210612 -0.389111 -46.343573 -0.426912 0.116236 46.344721 -0.000000 0.000000 0.000000 -0.801115 0.393864 0.440520 0.000000 0.000000 0.000000 -0.000000 0.000000 0.000000 -0.000000 0.000000 0.000000 -0.000000 0.000000 0.000000 -5.289976 -3.410276 -2.452657 0.000000 0.000000 0.000000 0.000000 0.000000 0.000000 -0.000000 0.000000 0.000000 -0.000000 0.000000 0.000000 -0.000000 0.000000 0.000000 -0.000000 0.000000 0.000000 0.000000 0.000000 0.000000 0.000000 0.000000 0.000000 -0.426912 0.116236 46.344721 -0.000000 0.000000 0.000000 -0.000000 0.000000 0.000000 0.000000 0.000000 0.000000 -1.320765 0.302574 46.293982 0.482963 -0.774884 0.057272 -5.246478 -4.480384 -1.993126 0.000000 0.000000 0.000000
-58.523820 73.147116 311.951294 0.378368 -0.711996 -48.580978 -0.784235 0.187274 48.584611 -0.000000 0.000000 0.000000 -1.499754 0.764973 0.822769 0.000000 0.000000 0.000000 -0.787775 -0.857146 0.140251 0.289892 0.159735 -0.264918 -0.295698 1.830209 0.166658 -9.217129 -7.069589 -4.882760 0.000000 0.000000 0.000000 0.000000 0.000000 0.000000 -0.000000 0.000000 0.000000 -0.000000 0.000000 0.000000 -0.000000 0.000000 0.000000 -0.000000 0.000000 0.000000 0.000000 0.000000 0.000000 0.000000 0.000000 0.000000 -0.784235 0.187274 48.584611 -0.000000 0.000000 0.000000 -0.000000 0.000000 0.000000 0.000000 0.000000 0.000000 -2.468490 0.458845 48.492107 0.913135 -1.441087 0.113485 -12.093149 -9.789776 -4.998458 0.000000 0.000000 0.000000
-58.282431 73.183492 312.284388 0.503250 -0.968635 -50.261854 -0.046640 0.116861 50.288525 -0.180140 -0.136698 0.020241 -2.477421 2.110714 1.143095 0.000000 0.000000 0.000000 -1.502377 -0.142225 0.181933 0.354283 0.226416 -0.357135 -0.385124 2.561814 0.223454 -12.621431 -9.163615 -6.738071 0.000000 0.000000 0.000000 0.000000 0.000000 0.000000 -0.382476 0.995123 -0.038477 -0.000000 0.000000 0.000000 -0.000000 0.000000 0.000000 -0.000000 0.000000 0.000000 0.000000 0.000000 0.000000 0.000000 0.000000 0.000000 -1.609101 -0.539391 50.444139 0.940391 0.073058 -0.177924 -0.000000 0.000000 0.000000 0.000000 0.000000 0.000000 -3.428565 0.523840 50.139818 1.290765 -1.999601 0.166564 -20.230591 -15.251687 -9.052243 0.000000 0.000000 0.000000
-58.068740 73.204346 312.563931 0.585242 -1.159020 -51.522595 -0.061361 0.140467 51.554674 -0.210815 -0.144662 0.023802 -3.031270 2.614421 1.415067 0.000000 0.000000 0.000000 -1.855248 -0.150081 0.241403 0.365197 0.283967 -0.421655 -0.447250 3.189927 0.260913 -14.845825 -10.337400 -7.841224 0.000000 0.000000 0.000000 0.000000 0.000000 0.000000 -0.445268 1.168741 -0.044317 -0.000000 0.000000 0.000000 -0.000000 0.000000 0.000000 -0.000000 0.000000 0.000000 0.000000 0.000000 0.000000 0.000000 0.000000 0.000000 -1.874787 -0.743996 51.757048 1.164261 0.149402 -0.229667 -0.000000 0.000000 0.000000 0.000000 0.000000 0.000000 -4.195162 0.532323 51.371555 1.590583 -1.534272 -0.060358 -28.351239 -20.710423 -13.627397 0.000000 0.000000 0.000000
